<?xml version="1.0" encoding="UTF-8"?>
<svg width="80px" height="80px" viewBox="0 0 80 80" version="1.1" xmlns="http://www.w3.org/2000/svg" xmlns:xlink="http://www.w3.org/1999/xlink">
    <!-- Generator: Sketch 59.1 (86144) - https://sketch.com -->
    <title>casino-cards</title>
    <desc>Created with Sketch.</desc>
    <g id="icons" stroke="none" stroke-width="1" fill="none" fill-rule="evenodd">
        <g id="ui-gambling-website-lined-icnos-casinoshunter" transform="translate(-2270.000000, -990.000000)" fill="#FFFFFF">
            <g id="2" transform="translate(1360.000000, 730.000000)">
                <path d="M950,260 C972.09139,260 990,277.90861 990,300 C990,322.09139 972.09139,340 950,340 C927.90861,340 910,322.09139 910,300 C910,277.90861 927.90861,260 950,260 Z M961.861,287.527154 L961.861437,297.143445 C962.10054,297.277174 962.316381,297.449759 962.500209,297.654427 L962.500209,297.654427 L962.631598,297.813387 L962.727567,297.948747 L962.912363,297.865538 C963.412227,297.664262 963.965272,297.628378 964.489767,297.768916 C965.133856,297.941499 965.682206,298.366015 966.013953,298.949093 C966.3457,299.532171 966.433812,300.226293 966.259035,300.878568 C966.102664,301.462154 965.747172,301.969539 965.259217,302.312779 L965.259217,302.312779 L965.09175,302.420992 L961.861,304.439154 L961.86103,307.036273 L961.856407,307.256063 C961.74277,309.952453 959.54825,312.103143 956.857709,312.103143 L956.857709,312.103143 L952.727,312.102154 L965.109456,315.420327 L965.282906,315.461406 C966.844612,315.783168 968.409964,314.818631 968.833238,313.238954 L968.833238,313.238954 L973.999369,293.958691 L974.041096,293.783072 C974.369223,292.20214 973.425031,290.62564 971.865166,290.207676 L971.865166,290.207676 L961.861,287.527154 Z M938.208,287.537154 L928.240881,290.207676 C926.623243,290.64112 925.667728,292.320507 926.106678,293.958691 L926.106678,293.958691 L931.272809,313.238954 C931.711759,314.877138 933.378953,315.853772 934.99659,315.420327 L934.99659,315.420327 L947.378,312.102154 L943.212289,312.103143 L942.995255,312.098462 C940.332684,311.983381 938.208968,309.760987 938.208968,307.036273 L938.208968,307.036273 L938.208,304.417154 L935.014296,302.420992 L934.84683,302.312779 C934.358875,301.969539 934.003383,301.462154 933.847011,300.878568 C933.672235,300.226293 933.760346,299.532171 934.092093,298.949093 C934.423841,298.366015 934.97219,297.941499 935.61628,297.768916 C936.206337,297.61081 936.832527,297.67599 937.37848,297.948747 L937.37848,297.948747 L937.474448,297.813387 L937.605838,297.654427 C937.780209,297.460288 937.983385,297.295015 938.207895,297.16439 L938.207895,297.16439 L938.208,287.537154 Z M957.311132,284 L943.464978,284 C941.76564,284 940.388055,285.377585 940.388055,287.076923 L940.388055,287.076923 L940.388055,307.076923 C940.388055,308.776261 941.76564,310.153846 943.464978,310.153846 L943.464978,310.153846 L957.311132,310.153846 C959.010469,310.153846 960.388055,308.776261 960.388055,307.076923 L960.388055,307.076923 L960.388055,287.076923 C960.388055,285.377585 959.010469,284 957.311132,284 L957.311132,284 Z M956.541901,305.538462 C956.966735,305.538462 957.311132,305.882858 957.311132,306.307692 C957.311132,306.732527 956.966735,307.076923 956.541901,307.076923 L956.541901,307.076923 L955.003439,307.076923 L954.899059,307.069901 C954.523597,307.018965 954.234209,306.697124 954.234209,306.307692 C954.234209,305.882858 954.578605,305.538462 955.003439,305.538462 L955.003439,305.538462 Z M964.092452,299.251716 C963.879397,299.194628 963.654443,299.210947 963.452609,299.295884 L963.452609,299.295884 L963.334563,299.355041 L962.825907,299.653014 L962.74045,299.69619 L962.634578,299.732576 C962.384506,299.798165 962.117725,299.729798 961.929917,299.553212 L961.929917,299.553212 L961.861,299.478154 L961.861,302.640154 L964.319056,301.105751 L964.416734,301.041052 L964.52189,300.951346 C964.652982,300.823491 964.746858,300.663803 964.794464,300.486137 C964.863888,300.227041 964.828974,299.951853 964.697282,299.720393 C964.565447,299.488679 964.348012,299.320193 964.092452,299.251716 Z M936.653437,299.295884 C936.451603,299.210947 936.22665,299.194628 936.013595,299.251716 C935.758035,299.320193 935.5406,299.488679 935.408764,299.720393 C935.277073,299.951853 935.242158,300.227041 935.311583,300.486137 C935.37109,300.708219 935.502895,300.902211 935.689313,301.041052 L935.689313,301.041052 L935.786991,301.105751 L938.208,302.618154 L938.20919,299.520126 C937.995103,299.748151 937.658366,299.821778 937.365596,299.69619 L937.365596,299.69619 L937.28014,299.653014 L936.771483,299.355041 Z M952.067629,293.230769 C952.744508,293.230769 953.393098,293.499333 953.871484,293.977724 C954.3499,294.456145 954.618824,295.105149 954.618824,295.781593 C954.618824,296.45441 954.35304,297.09977 953.885878,297.57045 L953.885878,297.57045 L950.94737,300.68201 L950.870231,300.753298 C950.734436,300.862531 950.564365,300.923077 950.388055,300.923077 C950.176483,300.923077 949.973895,300.835891 949.828911,300.68219 L949.828911,300.68219 L946.896301,297.577132 L946.760581,297.428969 C946.372463,296.970225 946.157286,296.386965 946.157286,295.781593 C946.157286,295.104969 946.425942,294.456018 946.90423,293.977724 C947.382519,293.499429 948.031465,293.230769 948.708085,293.230769 C949.327943,293.230769 949.924576,293.456245 950.388051,293.861813 L950.388051,293.861813 L950.517662,293.755694 L950.688189,293.635919 C951.096446,293.373413 951.57461,293.230769 952.067629,293.230769 Z M934.579259,300.682362 L934.608583,300.780537 L934.619538,300.812094 L934.579259,300.682362 Z M965.526787,300.682362 L965.486508,300.812094 L965.497464,300.780537 L965.526787,300.682362 Z M934.8,299.253154 L934.786371,299.274484 L934.775,299.293154 L934.8,299.253154 Z M965.305,299.253154 L965.33,299.293154 L965.319676,299.274484 L965.305,299.253154 Z M952.067629,294.768923 C951.837717,294.768923 951.615531,294.847383 951.437199,294.989345 L951.437199,294.989345 L951.351855,295.065548 L950.931672,295.48613 L950.843955,295.5615 C950.568288,295.764614 950.187909,295.760756 949.916498,295.549722 L949.916498,295.549722 L949.844079,295.485772 L949.423782,295.06547 L949.323617,294.977602 C949.148099,294.843055 948.9319,294.768923 948.708085,294.768923 C948.439618,294.768923 948.182253,294.875603 947.992182,295.065676 C947.802319,295.255541 947.695826,295.512825 947.695826,295.781593 C947.695826,296.011966 947.774066,296.233901 947.920317,296.416621 L947.920317,296.416621 L947.999064,296.504571 L950.388045,299.033623 L952.776009,296.505429 L952.859944,296.412248 L952.937379,296.300196 C953.030132,296.144586 953.080283,295.965659 953.080283,295.781593 C953.080283,295.513163 952.973625,295.255663 952.783928,295.065676 C952.593943,294.875689 952.336218,294.768923 952.067629,294.768923 Z M946.926516,295.781593 L946.929474,295.884215 L946.932055,295.918 L946.926516,295.781593 Z M947.55,294.426 L947.49926,294.472699 L947.49926,294.472699 L947.448161,294.521649 L947.55,294.426 Z M931.232414,292.585254 C931.636824,292.476893 932.053622,292.721051 932.16336,293.130597 C932.273097,293.540143 932.034218,293.95999 931.629809,294.068351 L931.629809,294.068351 L930.165313,294.460762 L930.064137,294.480616 C929.693569,294.527281 929.33496,294.290836 929.234367,293.915418 C929.12463,293.505872 929.363509,293.086026 929.767918,292.977665 L929.767918,292.977665 Z M967.942687,293.130597 C968.052425,292.721051 968.469223,292.476893 968.873632,292.585254 L968.873632,292.585254 L970.338128,292.977665 L970.435676,293.011058 C970.77993,293.155929 970.972272,293.540001 970.871679,293.915418 C970.771086,294.290836 970.412477,294.527281 970.041909,294.480616 L970.041909,294.480616 L969.940734,294.460762 L968.476238,294.068351 L968.37869,294.034958 C968.034436,293.890087 967.842094,293.506014 967.942687,293.130597 Z M951.701055,294.038 L951.657508,294.047593 L951.516386,294.087209 L951.701055,294.038 Z M951.801852,294.019649 L951.718452,294.034528 L951.701055,294.038 L951.801852,294.019649 Z M945.77267,287.076923 C946.197505,287.076923 946.541901,287.421319 946.541901,287.846154 C946.541901,288.270988 946.197505,288.615385 945.77267,288.615385 L945.77267,288.615385 L944.234209,288.615385 L944.129829,288.608362 C943.754367,288.557427 943.464978,288.235585 943.464978,287.846154 C943.464978,287.421319 943.809374,287.076923 944.234209,287.076923 L944.234209,287.076923 Z" id="casino-cards"></path>
            </g>
        </g>
    </g>
</svg>